<mxfile host="app.diagrams.net" agent="Mozilla/5.0 (Windows NT 10.0; Win64; x64) AppleWebKit/537.36 (KHTML, like Gecko) Chrome/128.0.0.0 Safari/537.36" version="24.7.6">
  <diagram name="第 1 页" id="D-faS1DdrBK2uXakqXEO">
    <mxGraphModel dx="1050" dy="565" grid="1" gridSize="10" guides="1" tooltips="1" connect="1" arrows="1" fold="1" page="1" pageScale="1" pageWidth="827" pageHeight="1169" math="0" shadow="0">
      <root>
        <mxCell id="0" />
        <mxCell id="1" parent="0" />
        <mxCell id="807guP65CA76vXRwVghX-2" value="" style="rounded=0;whiteSpace=wrap;html=1;fillColor=#f5f5f5;fontColor=#333333;strokeColor=#666666;" parent="1" vertex="1">
          <mxGeometry x="10" y="10" width="880" height="710" as="geometry" />
        </mxCell>
        <mxCell id="807guP65CA76vXRwVghX-1" value="&lt;b&gt;&lt;font style=&quot;font-size: 16px;&quot;&gt;driver_cam&lt;/font&gt;&lt;/b&gt;" style="rounded=0;whiteSpace=wrap;html=1;fillColor=#dae8fc;strokeColor=#6c8ebf;" parent="1" vertex="1">
          <mxGeometry x="230" y="140" width="416" height="490" as="geometry" />
        </mxCell>
        <mxCell id="807guP65CA76vXRwVghX-3" value="dds YUV" style="rounded=0;whiteSpace=wrap;html=1;fillColor=#dae8fc;strokeColor=#6c8ebf;" parent="1" vertex="1">
          <mxGeometry x="60" y="330" width="120" height="60" as="geometry" />
        </mxCell>
        <mxCell id="807guP65CA76vXRwVghX-4" value="log" style="rounded=0;whiteSpace=wrap;html=1;fillColor=#dae8fc;strokeColor=#6c8ebf;" parent="1" vertex="1">
          <mxGeometry x="700" y="202" width="120" height="60" as="geometry" />
        </mxCell>
        <mxCell id="807guP65CA76vXRwVghX-5" value="Fsm" style="rounded=0;whiteSpace=wrap;html=1;fillColor=#dae8fc;strokeColor=#6c8ebf;" parent="1" vertex="1">
          <mxGeometry x="700" y="312" width="120" height="60" as="geometry" />
        </mxCell>
        <mxCell id="807guP65CA76vXRwVghX-6" value="mviz" style="rounded=0;whiteSpace=wrap;html=1;fillColor=#dae8fc;strokeColor=#6c8ebf;" parent="1" vertex="1">
          <mxGeometry x="700" y="422" width="120" height="60" as="geometry" />
        </mxCell>
        <mxCell id="807guP65CA76vXRwVghX-7" value="camera_det" style="rounded=0;whiteSpace=wrap;html=1;fillColor=#dae8fc;strokeColor=#6c8ebf;" parent="1" vertex="1">
          <mxGeometry x="700" y="528" width="120" height="60" as="geometry" />
        </mxCell>
        <mxCell id="807guP65CA76vXRwVghX-8" value="" style="endArrow=classic;html=1;rounded=0;exitX=1;exitY=0.5;exitDx=0;exitDy=0;" parent="1" source="807guP65CA76vXRwVghX-3" edge="1">
          <mxGeometry width="50" height="50" relative="1" as="geometry">
            <mxPoint x="430" y="420" as="sourcePoint" />
            <mxPoint x="230" y="360" as="targetPoint" />
          </mxGeometry>
        </mxCell>
        <mxCell id="807guP65CA76vXRwVghX-9" value="1" style="edgeLabel;html=1;align=center;verticalAlign=middle;resizable=0;points=[];labelBackgroundColor=#F5F5F5;" parent="807guP65CA76vXRwVghX-8" vertex="1" connectable="0">
          <mxGeometry x="-0.136" y="-1" relative="1" as="geometry">
            <mxPoint y="-9" as="offset" />
          </mxGeometry>
        </mxCell>
        <mxCell id="807guP65CA76vXRwVghX-10" value="" style="endArrow=classic;html=1;rounded=0;exitX=0.996;exitY=0.188;exitDx=0;exitDy=0;entryX=0;entryY=0.5;entryDx=0;entryDy=0;exitPerimeter=0;" parent="1" source="807guP65CA76vXRwVghX-1" target="807guP65CA76vXRwVghX-4" edge="1">
          <mxGeometry width="50" height="50" relative="1" as="geometry">
            <mxPoint x="190" y="370" as="sourcePoint" />
            <mxPoint x="240" y="370" as="targetPoint" />
          </mxGeometry>
        </mxCell>
        <mxCell id="807guP65CA76vXRwVghX-14" value="2" style="edgeLabel;html=1;align=center;verticalAlign=middle;resizable=0;points=[];labelBackgroundColor=#F5F5F5;" parent="807guP65CA76vXRwVghX-10" vertex="1" connectable="0">
          <mxGeometry x="-0.0922" y="1" relative="1" as="geometry">
            <mxPoint y="-8" as="offset" />
          </mxGeometry>
        </mxCell>
        <mxCell id="807guP65CA76vXRwVghX-15" value="" style="endArrow=classic;html=1;rounded=0;entryX=0;entryY=0.5;entryDx=0;entryDy=0;exitX=1.002;exitY=0.412;exitDx=0;exitDy=0;exitPerimeter=0;" parent="1" source="807guP65CA76vXRwVghX-1" target="807guP65CA76vXRwVghX-5" edge="1">
          <mxGeometry width="50" height="50" relative="1" as="geometry">
            <mxPoint x="430" y="420" as="sourcePoint" />
            <mxPoint x="480" y="370" as="targetPoint" />
          </mxGeometry>
        </mxCell>
        <mxCell id="807guP65CA76vXRwVghX-16" value="3" style="edgeLabel;html=1;align=center;verticalAlign=middle;resizable=0;points=[];labelBackgroundColor=#F5F5F5;" parent="807guP65CA76vXRwVghX-15" vertex="1" connectable="0">
          <mxGeometry x="-0.106" relative="1" as="geometry">
            <mxPoint y="-8" as="offset" />
          </mxGeometry>
        </mxCell>
        <mxCell id="807guP65CA76vXRwVghX-17" value="" style="endArrow=classic;html=1;rounded=0;entryX=0;entryY=0.5;entryDx=0;entryDy=0;exitX=0.996;exitY=0.637;exitDx=0;exitDy=0;exitPerimeter=0;" parent="1" source="807guP65CA76vXRwVghX-1" target="807guP65CA76vXRwVghX-6" edge="1">
          <mxGeometry width="50" height="50" relative="1" as="geometry">
            <mxPoint x="430" y="420" as="sourcePoint" />
            <mxPoint x="480" y="370" as="targetPoint" />
          </mxGeometry>
        </mxCell>
        <mxCell id="807guP65CA76vXRwVghX-18" value="4" style="edgeLabel;html=1;align=center;verticalAlign=middle;resizable=0;points=[];labelBackgroundColor=#F5F5F5;" parent="807guP65CA76vXRwVghX-17" vertex="1" connectable="0">
          <mxGeometry x="-0.0204" relative="1" as="geometry">
            <mxPoint y="-9" as="offset" />
          </mxGeometry>
        </mxCell>
        <mxCell id="807guP65CA76vXRwVghX-19" value="" style="endArrow=classic;html=1;rounded=0;entryX=0;entryY=0.5;entryDx=0;entryDy=0;exitX=0.998;exitY=0.853;exitDx=0;exitDy=0;exitPerimeter=0;" parent="1" source="807guP65CA76vXRwVghX-1" target="807guP65CA76vXRwVghX-7" edge="1">
          <mxGeometry width="50" height="50" relative="1" as="geometry">
            <mxPoint x="640" y="555" as="sourcePoint" />
            <mxPoint x="480" y="370" as="targetPoint" />
          </mxGeometry>
        </mxCell>
        <mxCell id="807guP65CA76vXRwVghX-20" value="5" style="edgeLabel;html=1;align=center;verticalAlign=middle;resizable=0;points=[];labelBackgroundColor=#F5F5F5;" parent="807guP65CA76vXRwVghX-19" vertex="1" connectable="0">
          <mxGeometry x="-0.0724" y="1" relative="1" as="geometry">
            <mxPoint y="-7" as="offset" />
          </mxGeometry>
        </mxCell>
        <mxCell id="UGkX6FfsC7s5wPPyMBav-1" value="" style="rounded=0;whiteSpace=wrap;html=1;fillColor=#f5f5f5;fontColor=#333333;strokeColor=#666666;" parent="1" vertex="1">
          <mxGeometry x="50" y="760" width="880" height="710" as="geometry" />
        </mxCell>
        <mxCell id="UGkX6FfsC7s5wPPyMBav-2" value="&lt;b&gt;&lt;font style=&quot;font-size: 16px;&quot;&gt;visualize&lt;/font&gt;&lt;/b&gt;" style="rounded=0;whiteSpace=wrap;html=1;fillColor=#dae8fc;strokeColor=#6c8ebf;" parent="1" vertex="1">
          <mxGeometry x="270" y="890" width="416" height="490" as="geometry" />
        </mxCell>
        <mxCell id="UGkX6FfsC7s5wPPyMBav-3" value="dds YUV" style="rounded=0;whiteSpace=wrap;html=1;fillColor=#dae8fc;strokeColor=#6c8ebf;" parent="1" vertex="1">
          <mxGeometry x="100" y="1080" width="120" height="60" as="geometry" />
        </mxCell>
        <mxCell id="UGkX6FfsC7s5wPPyMBav-4" value="log" style="rounded=0;whiteSpace=wrap;html=1;fillColor=#dae8fc;strokeColor=#6c8ebf;" parent="1" vertex="1">
          <mxGeometry x="740" y="952" width="120" height="60" as="geometry" />
        </mxCell>
        <mxCell id="UGkX6FfsC7s5wPPyMBav-5" value="Fsm" style="rounded=0;whiteSpace=wrap;html=1;fillColor=#dae8fc;strokeColor=#6c8ebf;" parent="1" vertex="1">
          <mxGeometry x="740" y="1062" width="120" height="60" as="geometry" />
        </mxCell>
        <mxCell id="UGkX6FfsC7s5wPPyMBav-6" value="mviz" style="rounded=0;whiteSpace=wrap;html=1;fillColor=#dae8fc;strokeColor=#6c8ebf;" parent="1" vertex="1">
          <mxGeometry x="740" y="1172" width="120" height="60" as="geometry" />
        </mxCell>
        <mxCell id="UGkX6FfsC7s5wPPyMBav-7" value="camera_det" style="rounded=0;whiteSpace=wrap;html=1;fillColor=#dae8fc;strokeColor=#6c8ebf;" parent="1" vertex="1">
          <mxGeometry x="740" y="1278" width="120" height="60" as="geometry" />
        </mxCell>
        <mxCell id="UGkX6FfsC7s5wPPyMBav-8" value="" style="endArrow=classic;html=1;rounded=0;exitX=1;exitY=0.5;exitDx=0;exitDy=0;" parent="1" source="UGkX6FfsC7s5wPPyMBav-3" edge="1">
          <mxGeometry width="50" height="50" relative="1" as="geometry">
            <mxPoint x="470" y="1170" as="sourcePoint" />
            <mxPoint x="270" y="1110" as="targetPoint" />
          </mxGeometry>
        </mxCell>
        <mxCell id="UGkX6FfsC7s5wPPyMBav-9" value="1" style="edgeLabel;html=1;align=center;verticalAlign=middle;resizable=0;points=[];labelBackgroundColor=#F5F5F5;" parent="UGkX6FfsC7s5wPPyMBav-8" vertex="1" connectable="0">
          <mxGeometry x="-0.136" y="-1" relative="1" as="geometry">
            <mxPoint y="-9" as="offset" />
          </mxGeometry>
        </mxCell>
        <mxCell id="UGkX6FfsC7s5wPPyMBav-10" value="" style="endArrow=classic;html=1;rounded=0;exitX=0.996;exitY=0.188;exitDx=0;exitDy=0;entryX=0;entryY=0.5;entryDx=0;entryDy=0;exitPerimeter=0;" parent="1" source="UGkX6FfsC7s5wPPyMBav-2" target="UGkX6FfsC7s5wPPyMBav-4" edge="1">
          <mxGeometry width="50" height="50" relative="1" as="geometry">
            <mxPoint x="230" y="1120" as="sourcePoint" />
            <mxPoint x="280" y="1120" as="targetPoint" />
          </mxGeometry>
        </mxCell>
        <mxCell id="UGkX6FfsC7s5wPPyMBav-11" value="2" style="edgeLabel;html=1;align=center;verticalAlign=middle;resizable=0;points=[];labelBackgroundColor=#F5F5F5;" parent="UGkX6FfsC7s5wPPyMBav-10" vertex="1" connectable="0">
          <mxGeometry x="-0.0922" y="1" relative="1" as="geometry">
            <mxPoint y="-8" as="offset" />
          </mxGeometry>
        </mxCell>
        <mxCell id="UGkX6FfsC7s5wPPyMBav-12" value="" style="endArrow=classic;html=1;rounded=0;entryX=0;entryY=0.5;entryDx=0;entryDy=0;exitX=1.002;exitY=0.412;exitDx=0;exitDy=0;exitPerimeter=0;" parent="1" source="UGkX6FfsC7s5wPPyMBav-2" target="UGkX6FfsC7s5wPPyMBav-5" edge="1">
          <mxGeometry width="50" height="50" relative="1" as="geometry">
            <mxPoint x="470" y="1170" as="sourcePoint" />
            <mxPoint x="520" y="1120" as="targetPoint" />
          </mxGeometry>
        </mxCell>
        <mxCell id="UGkX6FfsC7s5wPPyMBav-13" value="3" style="edgeLabel;html=1;align=center;verticalAlign=middle;resizable=0;points=[];labelBackgroundColor=#F5F5F5;" parent="UGkX6FfsC7s5wPPyMBav-12" vertex="1" connectable="0">
          <mxGeometry x="-0.106" relative="1" as="geometry">
            <mxPoint y="-8" as="offset" />
          </mxGeometry>
        </mxCell>
        <mxCell id="UGkX6FfsC7s5wPPyMBav-14" value="" style="endArrow=classic;html=1;rounded=0;entryX=0;entryY=0.5;entryDx=0;entryDy=0;exitX=0.996;exitY=0.637;exitDx=0;exitDy=0;exitPerimeter=0;" parent="1" source="UGkX6FfsC7s5wPPyMBav-2" target="UGkX6FfsC7s5wPPyMBav-6" edge="1">
          <mxGeometry width="50" height="50" relative="1" as="geometry">
            <mxPoint x="470" y="1170" as="sourcePoint" />
            <mxPoint x="520" y="1120" as="targetPoint" />
          </mxGeometry>
        </mxCell>
        <mxCell id="UGkX6FfsC7s5wPPyMBav-15" value="4" style="edgeLabel;html=1;align=center;verticalAlign=middle;resizable=0;points=[];labelBackgroundColor=#F5F5F5;" parent="UGkX6FfsC7s5wPPyMBav-14" vertex="1" connectable="0">
          <mxGeometry x="-0.0204" relative="1" as="geometry">
            <mxPoint y="-9" as="offset" />
          </mxGeometry>
        </mxCell>
        <mxCell id="UGkX6FfsC7s5wPPyMBav-16" value="" style="endArrow=classic;html=1;rounded=0;entryX=0;entryY=0.5;entryDx=0;entryDy=0;exitX=0.998;exitY=0.853;exitDx=0;exitDy=0;exitPerimeter=0;" parent="1" source="UGkX6FfsC7s5wPPyMBav-2" target="UGkX6FfsC7s5wPPyMBav-7" edge="1">
          <mxGeometry width="50" height="50" relative="1" as="geometry">
            <mxPoint x="680" y="1305" as="sourcePoint" />
            <mxPoint x="520" y="1120" as="targetPoint" />
          </mxGeometry>
        </mxCell>
        <mxCell id="UGkX6FfsC7s5wPPyMBav-17" value="5" style="edgeLabel;html=1;align=center;verticalAlign=middle;resizable=0;points=[];labelBackgroundColor=#F5F5F5;" parent="UGkX6FfsC7s5wPPyMBav-16" vertex="1" connectable="0">
          <mxGeometry x="-0.0724" y="1" relative="1" as="geometry">
            <mxPoint y="-7" as="offset" />
          </mxGeometry>
        </mxCell>
      </root>
    </mxGraphModel>
  </diagram>
</mxfile>
